<?xml version="1.0" encoding="iso-8859-1"?>
<!-- Generator: Adobe Illustrator 19.0.0, SVG Export Plug-In . SVG Version: 6.00 Build 0)  -->
<svg version="1.1" id="Layer_1" xmlns="http://www.w3.org/2000/svg" xmlns:xlink="http://www.w3.org/1999/xlink" x="0px" y="0px"
     viewBox="0.100 0.100 299.001 299.001" style="enable-background:new 0 0 300.001 300.001;" xml:space="preserve" >
<g>
	<g>
		<g>
  <defs>
    <filter id="f2" x="0" y="0" width="200%" height="200%">
      <feOffset result="offOut" in="SourceGraphic" dx="20" dy="20" />
      <feGaussianBlur result="blurOut" in="offOut" stdDeviation="10" />
      <feBlend in="SourceGraphic" in2="blurOut" mode="normal" />
    </filter>
  </defs>

      <path filter="url(#f2)" d="M107.883,0h-85.27C10.144,0,0.001,10.143,0.001,22.612v85.27c0,12.469,10.143,22.612,22.612,22.612h85.27
				c12.469,0,22.612-10.143,22.612-22.612v-85.27C130.493,10.143,120.352,0,107.883,0z"/>
      <path filter="url(#f2)" d="M274.388,0h-85.27c-12.469,0-22.612,10.143-22.612,22.612v85.27c0,12.469,10.143,22.612,22.612,22.612h85.27
				c12.469,0,22.612-10.143,22.612-22.612v-85.27C297,10.143,286.857,0,274.388,0z"/>
      <path filter="url(#f2)" d="M107.883,166.507h-85.27c-12.469,0-22.612,10.142-22.612,22.611v85.27C0.001,286.857,10.144,297,22.613,297h85.27
				c12.469,0,22.612-10.143,22.612-22.612v-85.27C130.493,176.649,120.352,166.507,107.883,166.507z"/>
      <path filter="url(#f2)" d="M274.388,166.507h-85.27c-12.469,0-22.612,10.143-22.612,22.612v85.27c0,12.469,10.143,22.612,22.612,22.612h85.27
				C286.857,297,297,286.857,297,274.388v-85.27C297,176.649,286.857,166.507,274.388,166.507z"/>
		</g>
	</g>
</g>
  <g>
</g>
  <g>
</g>
  <g>
</g>
  <g>
</g>
  <g>
</g>
  <g>
</g>
  <g>
</g>
  <g>
</g>
  <g>
</g>
  <g>
</g>
  <g>
</g>
  <g>
</g>
  <g>
</g>
  <g>
</g>
  <g>
</g>
</svg>
